<svg width="9" height="20" viewBox="0 0 9 20" fill="none" xmlns="http://www.w3.org/2000/svg">
<path d="M8.99895 5.47893C8.99854 5.46538 8.99803 5.45183 8.99688 5.43819C8.99574 5.42451 8.99405 5.41101 8.99222 5.39754C8.99121 5.39059 8.99093 5.38367 8.98979 5.37667L8.23979 0.87667C8.22365 0.779468 8.18852 0.686399 8.1364 0.602781C8.08427 0.519163 8.01619 0.446634 7.93602 0.38934C7.85586 0.332046 7.7652 0.291108 7.66921 0.268868C7.57322 0.246627 7.47379 0.243518 7.3766 0.25972C7.2794 0.275922 7.18636 0.311116 7.10277 0.363291C7.01919 0.415466 6.9467 0.4836 6.88946 0.563799C6.83222 0.643999 6.79134 0.734691 6.76916 0.830695C6.74699 0.926699 6.74394 1.02613 6.76021 1.12331L7.36464 4.74999H5.625V0.999991C5.625 0.801079 5.54598 0.610313 5.40533 0.469661C5.26468 0.329009 5.07391 0.249991 4.875 0.249991C4.67609 0.249991 4.48532 0.329009 4.34467 0.469661C4.20402 0.610313 4.125 0.801079 4.125 0.999991V4.74999H2.38536L2.98979 1.12331C3.00606 1.02613 3.00301 0.926699 2.98083 0.830695C2.95866 0.734691 2.91778 0.643999 2.86053 0.563799C2.80329 0.4836 2.73081 0.415466 2.64722 0.363291C2.56364 0.311116 2.47059 0.275922 2.3734 0.25972C2.27621 0.243518 2.17678 0.246627 2.08079 0.268868C1.9848 0.291108 1.89413 0.332046 1.81397 0.38934C1.73381 0.446634 1.66572 0.519163 1.6136 0.602781C1.56148 0.686399 1.52635 0.779468 1.51021 0.87667L0.760208 5.37667C0.759064 5.38367 0.758789 5.39059 0.757782 5.39754C0.755951 5.411 0.754257 5.42451 0.753112 5.43819C0.751969 5.45183 0.751464 5.46538 0.75105 5.47893C0.75087 5.48598 0.75 5.4929 0.75 5.49999C0.75 5.50667 0.750458 5.51322 0.750504 5.51986C0.750641 5.52448 0.750641 5.52906 0.75087 5.53364C0.759927 6.4912 1.1014 7.41586 1.71687 8.14947C2.33235 8.88308 3.18359 9.38007 4.125 9.55541V19C4.125 19.1989 4.20402 19.3897 4.34467 19.5303C4.48532 19.671 4.67609 19.75 4.875 19.75C5.07391 19.75 5.26468 19.671 5.40533 19.5303C5.54598 19.3897 5.625 19.1989 5.625 19V9.55541C6.56641 9.38007 7.41765 8.88308 8.03313 8.14947C8.6486 7.41586 8.99007 6.49119 8.99913 5.53364C8.99936 5.52906 8.99936 5.52448 8.9995 5.51986C8.99954 5.51322 9 5.50667 9 5.49999C9 5.4929 8.99913 5.48598 8.99895 5.47893Z" fill="black"/>
</svg>
